<?xml version="1.0" standalone="no"?>
<!DOCTYPE svg PUBLIC "-//W3C//DTD SVG 20010904//EN"
 "http://www.w3.org/TR/2001/REC-SVG-20010904/DTD/svg10.dtd">
<svg version="1.0" xmlns="http://www.w3.org/2000/svg"
 width="1024.000000pt" height="1024.000000pt" viewBox="0 0 1024.000000 1024.000000"
 preserveAspectRatio="xMidYMid meet">

<g transform="translate(0.000000,1024.000000) scale(0.100000,-0.100000)"
fill="#000000" stroke="none">
<path d="M3181 8117 c-42 -109 -40 -325 3 -477 36 -125 102 -259 170 -344 31
-38 53 -72 51 -76 -3 -4 3 -14 13 -21 16 -13 16 -12 2 6 -8 11 4 4 25 -16 22
-20 65 -55 95 -79 30 -23 55 -48 55 -54 0 -6 9 -10 19 -8 12 2 16 -1 10 -9 -4
-8 -3 -10 4 -5 15 9 55 -18 44 -29 -4 -5 -1 -5 6 -1 7 4 33 -4 58 -18 26 -14
53 -26 60 -26 8 0 11 -6 7 -16 -5 -13 -9 -12 -27 5 -18 17 -28 19 -54 12 -17
-5 -34 -6 -37 -1 -7 11 24 22 37 13 7 -3 8 -1 4 5 -11 18 -44 14 -54 -5 -9
-15 -12 -15 -42 -1 -18 9 -44 15 -59 13 -16 -2 -31 4 -39 16 -7 11 -19 19 -25
18 -29 -3 -40 4 -17 11 25 8 25 8 2 9 -15 1 -21 5 -16 13 5 7 2 9 -8 5 -25 -9
-41 14 -20 29 15 11 13 13 -16 12 -29 -1 -60 -18 -33 -18 6 0 11 -5 11 -11 0
-8 -5 -7 -15 1 -9 7 -14 19 -11 27 3 7 -1 13 -10 13 -9 0 -12 -5 -8 -12 4 -7
3 -8 -5 -4 -20 13 -1 27 31 24 26 -3 31 1 34 22 4 23 3 24 -10 6 -22 -28 -39
-16 -22 15 12 24 12 26 -5 22 -11 -3 -19 -14 -19 -24 0 -10 -8 -23 -18 -28
-23 -12 -55 10 -46 33 3 9 1 16 -6 16 -6 0 -8 -4 -5 -10 3 -5 1 -10 -4 -10
-11 0 -15 14 -11 39 1 9 -4 12 -14 8 -8 -3 -18 -1 -22 5 -4 6 -3 8 4 4 6 -3
14 -1 18 5 4 8 3 9 -4 5 -7 -4 -12 -1 -12 6 0 10 -2 10 -9 -1 -7 -10 -11 -9
-22 6 -8 11 -21 23 -29 28 -31 19 98 -121 158 -170 34 -29 105 -75 156 -104
79 -43 98 -51 115 -42 12 7 22 7 26 2 3 -5 18 -10 33 -11 57 -2 69 -5 69 -17
0 -10 -11 -12 -36 -8 -24 4 -31 3 -21 -3 26 -16 170 -40 310 -53 78 -6 170
-21 218 -35 84 -25 142 -31 142 -15 0 5 -28 46 -63 92 -223 295 -269 361 -332
473 -38 69 -101 181 -139 248 -111 199 -208 312 -354 411 -55 38 -182 90 -244
102 -34 6 -39 5 -47 -18z m344 -1125 c-3 -3 -11 0 -18 7 -9 10 -8 11 6 5 10
-3 15 -9 12 -12z m69 -24 c-5 -8 -1 -9 12 -4 14 5 16 4 7 -5 -13 -13 -37 -3
-28 12 4 5 8 9 11 9 3 0 2 -5 -2 -12z m251 -36 c-3 -3 -11 0 -18 7 -9 10 -8
11 6 5 10 -3 15 -9 12 -12z m-28 -25 c0 -9 -10 -11 -31 -8 l-31 5 30 7 c17 4
30 7 31 8 0 0 1 -5 1 -12z"/>
<path d="M7135 8125 c-126 -35 -299 -150 -399 -266 -60 -70 -137 -191 -231
-364 -103 -188 -182 -309 -345 -525 -93 -123 -116 -160 -103 -164 8 -4 95 15
192 40 97 26 186 47 198 48 12 1 19 3 17 5 -3 3 30 17 73 32 43 15 80 26 82
23 2 -2 -10 -9 -28 -15 -29 -10 -30 -12 -14 -24 17 -13 17 -14 0 -20 -10 -4
-32 -5 -50 -1 -26 5 -29 4 -13 -5 45 -27 245 27 380 102 41 23 73 46 70 51 -3
4 1 5 8 3 17 -7 100 53 92 66 -3 5 -2 8 3 7 13 -4 64 39 67 56 1 9 5 19 9 22
12 12 8 24 -9 24 -10 0 -14 -6 -11 -14 4 -10 -2 -13 -19 -12 -23 1 -23 2 -7
15 16 12 17 13 1 8 -10 -3 -20 -2 -23 4 -4 5 -11 6 -17 3 -6 -4 -5 -10 3 -15
10 -6 11 -9 2 -9 -7 0 -13 -5 -13 -11 0 -5 5 -7 12 -3 7 5 8 3 3 -6 -6 -10 -4
-12 9 -7 10 4 15 3 11 -3 -9 -14 -32 -12 -38 4 -3 7 -15 16 -27 19 -21 5 -21
5 -5 -13 11 -12 13 -20 5 -25 -6 -3 -9 -2 -8 3 2 5 -8 19 -22 31 -14 12 -20
21 -15 20 6 -1 18 1 29 6 12 5 21 3 26 -5 5 -8 7 1 5 23 -3 30 6 50 52 119 67
99 93 156 130 280 26 86 28 106 28 268 0 136 -3 182 -15 205 -18 35 -29 38
-95 20z m-105 -869 c0 -2 -8 -10 -17 -17 -16 -13 -17 -12 -4 4 13 16 21 21 21
13z m-55 -84 c-3 -3 -11 0 -18 7 -9 10 -8 11 6 5 10 -3 15 -9 12 -12z m155 5
c0 -2 -12 -14 -27 -28 -20 -18 -24 -19 -13 -4 18 24 40 42 40 32z m-210 -30
c0 -2 -10 -12 -22 -23 l-23 -19 19 23 c18 21 26 27 26 19z m-50 -52 c0 -2 -10
-9 -22 -15 -22 -11 -22 -10 -4 4 21 17 26 19 26 11z m-130 -85 c-8 -5 -19 -10
-25 -10 -5 0 -3 5 5 10 8 5 20 10 25 10 6 0 3 -5 -5 -10z"/>
<path d="M7179 7223 c-13 -16 -12 -17 4 -4 16 13 21 21 13 21 -2 0 -10 -8 -17
-17z"/>
<path d="M3290 7199 c0 -5 5 -7 10 -4 6 3 10 8 10 11 0 2 -4 4 -10 4 -5 0 -10
-5 -10 -11z"/>
<path d="M3625 6941 c-3 -5 4 -13 16 -16 28 -9 33 -2 9 13 -11 6 -21 8 -25 3z"/>
<path d="M6535 6910 c3 -5 11 -10 16 -10 6 0 7 5 4 10 -3 6 -11 10 -16 10 -6
0 -7 -4 -4 -10z"/>
<path d="M4445 6615 c-62 -22 -97 -77 -59 -92 9 -3 31 2 50 11 46 21 76 20
126 -5 37 -19 42 -19 56 -5 13 12 13 20 4 40 -22 49 -111 74 -177 51z"/>
<path d="M5857 6620 c-46 -8 -87 -45 -87 -77 0 -31 26 -40 60 -19 35 20 102
21 140 1 35 -18 60 -10 60 19 0 28 -36 63 -75 71 -54 12 -60 13 -98 5z"/>
<path d="M4447 6286 c-49 -18 -64 -32 -88 -77 -27 -54 -26 -158 2 -216 41 -84
136 -118 204 -72 127 86 104 330 -34 369 -43 12 -37 12 -84 -4z m138 -61 c32
-31 32 -59 -1 -92 -20 -20 -31 -24 -57 -19 -61 12 -78 78 -31 115 35 27 59 26
89 -4z"/>
<path d="M5804 6246 c-33 -35 -44 -55 -50 -91 -27 -185 109 -315 236 -225 91
65 99 236 16 324 -31 34 -37 36 -96 36 -62 0 -64 -1 -106 -44z m193 -18 c46
-43 16 -118 -47 -118 -65 0 -94 79 -44 119 34 27 62 27 91 -1z"/>
<path d="M7473 6055 c-17 -7 -49 -31 -71 -53 -45 -45 -62 -100 -62 -205 -1
-86 -26 -139 -85 -176 -26 -16 -65 -33 -88 -36 -67 -11 -119 -39 -161 -85
l-38 -42 -52 10 c-95 19 -210 -21 -279 -97 -44 -49 -60 -79 -82 -156 -19 -66
-27 -75 -67 -75 -88 0 -210 -87 -250 -178 -27 -61 -34 -171 -15 -233 l14 -46
-61 -32 c-34 -17 -69 -36 -78 -43 -9 -7 -20 -10 -23 -6 -3 3 -18 95 -32 204
-15 110 -27 200 -28 202 -5 7 -34 -11 -29 -19 3 -5 -2 -6 -10 -3 -8 3 -23 1
-33 -4 -32 -17 -125 -42 -121 -32 2 5 57 37 123 71 174 90 243 139 337 238
118 124 178 235 193 352 l5 44 -14 -50 c-19 -64 -35 -104 -35 -87 -1 7 -15 -4
-33 -24 -46 -52 -159 -136 -175 -129 -8 2 -12 1 -9 -4 3 -5 0 -14 -8 -20 -18
-15 -144 -67 -241 -100 -44 -14 -85 -30 -92 -34 -6 -4 -30 -46 -54 -94 -113
-236 -344 -350 -674 -336 -177 8 -336 74 -457 189 -36 35 -64 64 -62 64 2 0
-9 21 -25 48 -16 26 -35 64 -42 84 -7 20 -17 34 -22 31 -5 -3 -7 5 -3 18 3 13
3 19 0 12 -4 -9 -16 -8 -47 4 -23 8 -46 16 -52 18 -33 9 -91 35 -184 82 -147
75 -180 95 -187 116 -3 9 -12 17 -20 17 -8 0 -14 5 -14 10 0 6 -7 10 -15 10
-8 0 -17 11 -21 24 -5 22 -44 45 -44 26 0 -20 44 -109 85 -169 83 -126 190
-213 413 -336 67 -37 120 -70 118 -72 -5 -6 -58 9 -123 36 l-52 20 -5 -32 c-3
-18 -10 -77 -16 -132 -18 -161 -39 -280 -77 -430 -51 -203 -52 -186 4 -212 27
-12 86 -47 132 -78 47 -30 87 -52 91 -48 3 5 14 40 24 78 28 112 107 373 131
436 l23 58 -44 37 c-25 20 -43 38 -41 40 2 2 28 -9 58 -25 88 -47 241 -100
341 -117 71 -12 129 -15 243 -11 190 7 282 30 437 108 92 46 121 51 57 9 l-46
-31 14 -42 c31 -88 103 -384 103 -420 0 -26 -19 -80 -59 -165 -32 -70 -88
-192 -124 -272 -36 -80 -118 -257 -182 -395 -177 -380 -179 -384 -179 -540 -1
-151 17 -226 81 -333 92 -154 206 -243 439 -342 82 -34 196 -83 254 -107 183
-78 245 -95 355 -101 163 -7 328 42 450 135 112 86 171 186 340 578 51 117
292 664 395 895 83 185 95 264 66 415 -8 39 -11 73 -8 76 4 3 29 14 57 24 70
26 147 105 170 174 28 86 18 189 -28 276 l-36 68 38 57 c107 162 65 364 -98
471 -23 14 -24 18 -14 57 14 53 3 109 -33 169 -40 67 -52 101 -53 151 -1 62
20 103 88 171 69 67 91 110 91 173 0 90 -79 196 -169 227 -46 15 -149 13 -188
-4z m-244 -871 c442 -197 455 -204 487 -266 31 -60 7 -178 -41 -200 -17 -8
-31 -5 -61 10 -21 11 -147 68 -279 127 -511 227 -615 277 -615 295 0 56 45
130 92 153 66 33 92 25 417 -119z m-538 -262 c249 -111 940 -430 963 -446 85
-55 86 -196 2 -231 -43 -18 -38 -20 -351 125 -121 56 -368 167 -550 247 -181
80 -336 151 -343 158 -8 7 -16 31 -19 53 -10 78 69 157 148 148 20 -2 87 -26
150 -54z m-169 -441 c178 -77 439 -196 525 -239 43 -22 144 -68 226 -102 115
-49 148 -68 151 -84 20 -101 28 -229 18 -265 -10 -32 -113 -267 -220 -501 -13
-30 -60 -134 -102 -230 -235 -531 -304 -680 -333 -723 -74 -111 -253 -181
-400 -157 -34 5 -101 25 -147 44 -489 196 -528 215 -612 297 -38 38 -69 80
-91 126 -29 63 -32 76 -32 168 0 112 -19 60 178 495 480 1064 489 1082 548
1126 35 25 148 86 176 94 1 0 52 -22 115 -49z"/>
<path d="M6791 3891 c-40 -40 -40 -106 1 -133 13 -8 76 -38 141 -67 121 -54
142 -56 179 -24 23 21 32 69 18 102 -9 23 -34 38 -128 81 -141 63 -181 71
-211 41z"/>
<path d="M6624 3516 c-63 -63 -44 -104 74 -158 48 -22 110 -51 138 -64 28 -13
56 -24 62 -24 19 0 70 50 76 75 9 33 -19 92 -47 101 -12 3 -72 28 -133 55 -61
27 -116 49 -123 49 -7 0 -28 -15 -47 -34z"/>
<path d="M6472 3173 c-19 -7 -42 -58 -42 -91 0 -39 20 -55 126 -101 49 -22
103 -47 121 -55 19 -10 41 -14 57 -10 29 7 76 57 76 80 0 30 -30 72 -62 87
-195 91 -238 105 -276 90z"/>
<path d="M6297 2796 c-26 -20 -40 -68 -28 -99 10 -25 87 -72 150 -92 12 -4 39
-18 58 -31 54 -36 113 -33 147 7 30 35 31 47 12 93 -11 26 -25 37 -62 51 -27
10 -84 33 -127 52 -83 35 -122 40 -150 19z"/>
<path d="M4835 5652 c-3 -3 -5 -19 -5 -36 1 -95 114 -210 263 -265 26 -10 27
-14 27 -74 l0 -63 -67 6 c-38 4 -84 12 -103 18 -19 6 -48 13 -65 15 -32 4 -59
13 -87 28 -24 12 -31 11 -22 -3 6 -10 5 -10 -8 -1 -8 7 -18 10 -21 6 -4 -3 -7
-2 -7 4 0 6 -19 19 -42 29 -24 10 -47 20 -52 22 -5 3 -6 0 -2 -6 3 -6 2 -13
-4 -17 -5 -3 -10 -1 -10 4 0 6 -7 11 -15 11 -8 0 -15 6 -15 14 0 8 -5 18 -10
21 -12 8 16 -66 44 -115 69 -121 156 -206 259 -256 61 -29 82 -34 142 -34 48
0 84 7 114 21 l45 20 50 -22 c61 -26 170 -28 234 -5 113 41 275 204 269 271
-1 12 3 19 11 17 7 -1 17 10 23 25 6 16 15 36 20 46 6 11 5 17 -1 17 -5 0 -10
-5 -10 -12 0 -6 -3 -8 -7 -4 -4 3 -13 -6 -20 -21 -8 -18 -11 -20 -8 -6 6 21 4
21 -72 -8 -43 -17 -87 -34 -98 -39 -17 -7 -269 -60 -287 -60 -3 0 -9 -8 -11
-17 -3 -10 -5 21 -6 69 l-1 87 77 37 c127 61 213 163 213 252 0 31 -10 33 -86
13 -93 -24 -157 -54 -221 -101 -29 -22 -57 -40 -64 -40 -6 0 -48 24 -92 54
-45 29 -102 61 -127 70 -53 19 -137 36 -145 28z m-119 -354 c5 4 5 3 1 -2 -12
-15 -34 -15 -34 0 0 9 4 11 12 4 7 -5 16 -6 21 -2z"/>
<path d="M3931 5594 c0 -11 3 -14 6 -6 3 7 2 16 -1 19 -3 4 -6 -2 -5 -13z"/>
<path d="M3940 5560 c0 -5 5 -10 11 -10 5 0 7 5 4 10 -3 6 -8 10 -11 10 -2 0
-4 -4 -4 -10z"/>
<path d="M4083 5440 c2 -8 12 -16 23 -17 13 -2 15 -1 4 4 -8 3 -19 11 -23 17
-6 7 -7 6 -4 -4z"/>
<path d="M4512 5320 c0 -14 2 -19 5 -12 2 6 2 18 0 25 -3 6 -5 1 -5 -13z"/>
<path d="M4521 5254 c0 -11 3 -14 6 -6 3 7 2 16 -1 19 -3 4 -6 -2 -5 -13z"/>
<path d="M3691 4784 c-190 -55 -418 -199 -591 -373 -131 -132 -221 -258 -305
-426 -131 -263 -178 -494 -155 -760 22 -254 97 -446 256 -650 259 -336 682
-556 1174 -611 384 -43 907 28 1230 167 l48 21 -72 73 -73 74 -74 -29 c-82
-31 -234 -71 -349 -91 -115 -20 -377 -17 -480 4 -234 50 -407 144 -566 308
-118 121 -195 252 -254 427 -22 65 -40 99 -70 132 -89 96 -160 232 -201 386
-31 111 -38 345 -14 469 23 125 67 253 127 367 51 98 158 250 226 322 44 45
176 164 211 188 14 10 23 19 20 22 -2 2 -42 -7 -88 -20z"/>
<path d="M4640 3701 c0 -6 4 -13 10 -16 6 -3 7 1 4 9 -7 18 -14 21 -14 7z"/>
<path d="M4440 3606 c0 -2 7 -7 16 -10 8 -3 12 -2 9 4 -6 10 -25 14 -25 6z"/>
<path d="M4575 3580 c-3 -5 -1 -10 4 -10 6 0 11 5 11 10 0 6 -2 10 -4 10 -3 0
-8 -4 -11 -10z"/>
<path d="M4500 3559 c0 -5 5 -7 10 -4 6 3 10 8 10 11 0 2 -4 4 -10 4 -5 0 -10
-5 -10 -11z"/>
<path d="M4565 3549 c-4 -6 -13 -8 -21 -5 -8 3 -11 0 -8 -8 7 -18 41 -9 41 10
0 17 -4 18 -12 3z"/>
<path d="M4640 3549 c0 -5 5 -7 10 -4 6 3 10 8 10 11 0 2 -4 4 -10 4 -5 0 -10
-5 -10 -11z"/>
<path d="M4595 3540 c-3 -5 -1 -10 4 -10 6 0 11 5 11 10 0 6 -2 10 -4 10 -3 0
-8 -4 -11 -10z"/>
<path d="M4480 3526 c0 -10 5 -14 11 -10 7 4 9 -1 7 -12 -3 -13 -11 -18 -27
-16 -21 2 -22 0 -10 -15 9 -11 10 -14 2 -9 -17 9 -16 -12 1 -43 9 -16 16 -20
20 -12 4 7 2 18 -4 26 -11 14 -7 19 13 16 4 0 7 2 8 7 0 4 3 19 5 33 3 16 -2
31 -11 39 -12 10 -15 10 -15 -4z"/>
<path d="M4594 3503 c-18 -18 -18 -23 1 -23 8 0 15 8 15 17 0 14 2 15 13 4 10
-11 10 -14 0 -18 -7 -3 -13 -12 -14 -21 0 -11 -2 -12 -6 -4 -2 6 -9 12 -15 12
-6 0 -17 8 -25 18 -10 12 -16 14 -19 4 -3 -6 -10 -10 -15 -6 -5 3 -9 1 -9 -5
0 -5 14 -12 30 -16 17 -4 30 -11 30 -16 0 -9 -17 -7 -56 8 -6 2 -17 -4 -25
-13 -13 -16 -12 -17 11 -11 24 6 24 6 -4 -18 -17 -15 -26 -30 -23 -39 4 -10 1
-13 -8 -9 -8 3 -12 9 -9 14 3 5 -1 16 -8 25 -43 52 -67 74 -82 74 -10 0 -14 5
-11 10 3 6 1 10 -4 10 -6 0 -11 -7 -11 -15 0 -8 9 -15 20 -15 14 0 20 -6 18
-17 -2 -14 3 -17 22 -15 22 2 21 0 -10 -17 -19 -10 -38 -17 -42 -14 -5 2 -8
-1 -8 -6 0 -6 7 -11 15 -11 8 0 15 -4 15 -10 0 -5 -7 -6 -17 -3 -10 4 -14 2
-10 -4 9 -15 -53 -23 -77 -11 -10 6 -37 7 -60 4 -22 -3 -48 -2 -56 4 -11 7 -7
9 18 6 17 -2 32 0 32 4 0 11 51 5 78 -9 18 -10 22 -9 22 3 0 10 -6 13 -15 10
-9 -4 -18 3 -24 18 -5 13 -17 30 -27 38 -18 14 -18 13 0 -8 11 -12 14 -22 8
-22 -6 0 -18 -3 -28 -7 -13 -5 -15 -3 -9 8 5 8 -2 5 -14 -5 -26 -23 -60 -28
-80 -12 -11 8 -13 8 -8 -1 5 -7 -1 -16 -12 -22 -27 -15 -34 -14 -27 4 3 9 0
15 -8 15 -9 0 -14 -12 -13 -35 1 -19 2 -35 3 -35 17 0 54 22 49 30 -3 6 1 13
10 16 29 11 27 -3 -5 -35 -26 -26 -35 -29 -52 -20 -15 8 -24 7 -41 -8 -13 -12
-18 -13 -12 -3 5 8 17 21 27 28 14 10 15 16 5 26 -13 15 -27 12 -27 -5 0 -6 6
-7 13 -3 6 4 9 4 5 0 -3 -4 -10 -8 -15 -8 -4 -1 -13 -8 -19 -17 -10 -13 -14
-13 -28 -2 -9 7 -13 17 -10 23 5 8 -24 5 -63 -7 -7 -2 -10 5 -7 21 2 13 0 24
-6 24 -6 0 -9 -4 -6 -8 3 -5 -4 -16 -16 -26 -17 -15 -22 -15 -29 -5 -10 17 -9
78 3 85 4 3 8 10 8 15 0 5 -10 1 -22 -10 -11 -11 -25 -18 -29 -15 -4 2 -13 -5
-19 -16 -12 -22 -7 -25 20 -10 16 8 18 8 14 -5 -4 -8 -13 -15 -21 -15 -8 0
-11 -5 -8 -11 4 -6 14 -8 23 -4 13 5 12 1 -3 -15 -16 -18 -17 -20 -2 -14 11 4
17 1 17 -9 0 -30 -18 -27 -34 6 -8 17 -16 29 -17 25 -5 -25 -4 -34 6 -41 6 -5
2 -6 -8 -3 -13 4 -18 1 -16 -12 3 -34 -1 -53 -11 -47 -5 3 -7 12 -3 20 8 22
-16 48 -32 35 -14 -11 -33 5 -21 17 3 4 6 1 6 -6 0 -7 5 -9 10 -6 6 3 8 17 6
30 -3 14 1 26 10 29 16 6 19 -5 4 -20 -15 -15 5 -38 26 -29 18 7 18 8 -1 15
-18 7 -19 8 -2 15 23 10 22 21 -4 28 -16 4 -19 11 -14 29 5 20 4 20 -5 5 -6
-9 -9 -21 -6 -26 5 -7 -15 -21 -29 -21 -2 0 -6 28 -8 63 -3 59 -3 58 -5 -18
-8 -311 96 -586 289 -771 98 -93 245 -169 399 -206 86 -20 374 -17 480 6 83
18 217 59 228 70 11 12 -69 420 -109 551 -37 119 -89 258 -95 252 -3 -3 3 -23
12 -46 9 -23 14 -44 11 -47 -2 -3 -7 6 -11 19 -7 28 -38 40 -57 23 -8 -6 -5
-1 6 12 15 18 15 22 3 17 -9 -4 -18 0 -21 9 -4 11 -1 13 11 9 14 -5 15 -3 5 7
-16 17 -63 22 -63 7 0 -8 -3 -8 -12 1 -8 8 -8 15 2 27 14 17 35 21 25 5 -3 -5
-1 -10 4 -10 13 0 14 11 3 25 -10 14 -35 12 -45 -3 -5 -7 -13 -9 -19 -6 -7 4
-2 14 13 26 l24 20 -27 -6 c-17 -4 -28 -2 -28 4 0 6 4 9 9 5 6 -3 9 4 8 15 -1
21 -12 26 -22 10 -3 -5 -11 -10 -17 -10 -6 0 -3 9 7 20 10 11 22 17 26 14 5
-3 9 0 9 5 0 6 -7 11 -16 11 -11 0 -14 5 -10 17 6 15 5 15 -13 -1 -19 -17 -19
-17 -14 3 4 17 2 20 -12 14 -11 -4 -16 -2 -12 4 9 15 -23 12 -39 -4z m-39 -72
c3 -5 2 -12 -3 -15 -5 -3 -9 1 -9 9 0 17 3 19 12 6z m89 1 c2 -4 -4 -9 -15 -9
-11 -1 -17 2 -14 8 7 11 22 12 29 1z m-229 -52 c-5 -8 -11 -8 -17 -2 -6 6 -7
16 -3 22 5 8 11 8 17 2 6 -6 7 -16 3 -22z m148 -6 c-7 -3 -10 -11 -7 -19 3 -7
1 -15 -4 -19 -5 -3 -7 5 -6 17 3 29 2 27 17 26 9 0 9 -2 0 -5z m-352 -32 c4 7
11 9 14 6 4 -4 4 -11 1 -17 -9 -14 -64 -10 -70 5 -4 10 1 11 21 3 19 -7 28 -6
34 3z m69 -1 c0 -5 -7 -12 -16 -15 -14 -5 -15 -4 -4 9 14 17 20 19 20 6z m160
-1 c-18 -12 -30 -13 -30 -2 0 4 10 9 22 9 18 2 20 0 8 -7z m253 -15 c-3 -9 -8
-14 -10 -11 -3 3 -2 9 2 15 9 16 15 13 8 -4z m-818 -5 c3 -5 -1 -10 -10 -10
-9 0 -13 5 -10 10 3 6 8 10 10 10 2 0 7 -4 10 -10z m55 0 c8 -5 11 -10 5 -10
-5 0 -17 5 -25 10 -8 5 -10 10 -5 10 6 0 17 -5 25 -10z m450 -4 c0 -3 -4 -8
-10 -11 -5 -3 -10 -1 -10 4 0 6 5 11 10 11 6 0 10 -2 10 -4z m-465 -16 c3 -5
1 -10 -4 -10 -6 0 -11 5 -11 10 0 6 2 10 4 10 3 0 8 -4 11 -10z m-67 -19 c-6
-10 -18 -17 -25 -14 -10 4 -8 9 9 18 13 7 24 13 26 14 1 1 -3 -8 -10 -18z
m222 9 c0 -5 -8 -10 -17 -10 -15 0 -16 2 -3 10 19 12 20 12 20 0z m-362 -25
c-1 -14 -6 -25 -11 -25 -5 0 -6 -8 -2 -17 4 -13 3 -15 -4 -8 -8 8 -7 20 1 43
15 39 18 40 16 7z m412 21 c0 -11 -19 -15 -25 -6 -3 5 1 10 9 10 9 0 16 -2 16
-4z m650 -6 c0 -5 -5 -10 -11 -10 -5 0 -7 5 -4 10 3 6 8 10 11 10 2 0 4 -4 4
-10z m-980 -15 c-9 -10 -9 -15 -1 -15 6 0 11 -4 11 -10 0 -16 -17 -11 -24 7
-4 9 -1 20 6 25 19 12 22 10 8 -7z m110 1 c0 -8 -31 -36 -41 -36 -5 0 -9 5 -9
11 0 5 4 8 9 5 5 -3 14 1 21 9 12 15 20 19 20 11z"/>
<path d="M4316 3494 c-7 -19 0 -34 17 -34 9 0 8 3 -1 8 -7 5 -10 16 -6 25 3 9
4 17 1 17 -3 0 -8 -7 -11 -16z"/>
<path d="M4448 3503 c7 -3 16 -2 19 1 4 3 -2 6 -13 5 -11 0 -14 -3 -6 -6z"/>
<path d="M3737 3493 c-10 -9 -9 -23 1 -23 5 0 9 7 9 15 0 17 -1 18 -10 8z"/>
<path d="M3803 3463 c4 -3 1 -13 -6 -22 -11 -14 -10 -14 5 -2 16 12 16 31 1
31 -4 0 -3 -3 0 -7z"/>
<path d="M4155 3450 c-4 -6 -11 -7 -17 -4 -7 4 -8 2 -4 -5 6 -9 11 -9 21 -1 8
7 19 9 25 5 5 -3 10 -1 10 4 0 14 -27 14 -35 1z"/>
<path d="M4265 3451 c-3 -5 -2 -12 3 -15 5 -3 9 1 9 9 0 17 -3 19 -12 6z"/>
<path d="M4727 3445 c-6 -15 10 -32 20 -21 4 3 1 6 -5 6 -6 0 -9 7 -6 15 4 8
4 15 1 15 -3 0 -7 -7 -10 -15z"/>
<path d="M4295 3441 c3 -5 1 -12 -5 -16 -5 -3 -10 -11 -10 -16 0 -6 7 -3 16 5
18 18 34 21 34 5 0 -5 -4 -8 -9 -4 -16 9 -22 -12 -7 -24 11 -9 15 -6 20 14 4
14 13 25 21 25 8 0 15 4 15 8 0 5 -7 9 -15 9 -8 0 -15 -4 -15 -8 0 -5 -12 -4
-26 1 -15 6 -23 6 -19 1z"/>
<path d="M4805 3415 c23 -67 29 -81 37 -90 11 -12 -17 69 -32 93 -10 15 -11
15 -5 -3z"/>
<path d="M4080 3410 c0 -5 5 -10 10 -10 6 0 10 5 10 10 0 6 -4 10 -10 10 -5 0
-10 -4 -10 -10z"/>
<path d="M3739 3393 c-13 -16 -12 -17 4 -4 16 13 21 21 13 21 -2 0 -10 -8 -17
-17z"/>
<path d="M3948 3389 c-20 -21 -22 -29 -9 -29 5 0 16 11 25 25 19 29 9 32 -16
4z"/>
<path d="M4138 3403 c7 -3 16 -2 19 1 4 3 -2 6 -13 5 -11 0 -14 -3 -6 -6z"/>
<path d="M3836 3364 c-4 -10 -1 -14 6 -12 15 5 23 28 10 28 -5 0 -13 -7 -16
-16z"/>
<path d="M3971 3358 c-9 -25 -6 -38 10 -38 5 0 7 12 3 28 -4 21 -3 24 5 12 7
-9 11 -10 11 -3 0 23 -20 24 -29 1z"/>
</g>
</svg>
